#define _width 16
#define _height 16
static char _bits[] = {
 0x00,0x00,0x0c,0x7a,0x12,0x0a,0x12,0x39,0x9e,0x08,0x52,0x08,0x52,0x08,0x00,
 0x00,0x00,0x00,0x00,0x00,0xa7,0x4b,0x55,0xa9,0x73,0xa9,0x55,0xa9,0x55,0x49,
 0x00,0x00 };
