#define _width 182
#define _height 64
static char _bits[] = {
 0x00,0x00,0x00,0xe8,0x16,0x00,0x00,0x00,0x74,0x0b,0x00,0x00,0x00,0xfa,0x0a,
 0x00,0x00,0x00,0xfd,0x0a,0x00,0x00,0x00,0x00,0x00,0x80,0xaf,0xff,0x01,0x00,
 0xc0,0xd7,0xff,0x00,0x00,0xe0,0xcb,0x7f,0x00,0x00,0xf0,0xe5,0xbf,0x00,0x00,
 0x00,0x00,0x00,0x70,0x00,0xff,0x0f,0x00,0x38,0x80,0xff,0x07,0x00,0x1c,0xc0,
 0xff,0x07,0x00,0x0e,0xe0,0xff,0x01,0x00,0x00,0x00,0x00,0x0c,0x00,0xf6,0x3f,
 0x00,0x06,0x00,0xfb,0x3f,0x00,0x03,0x80,0xff,0x0f,0x80,0x01,0x80,0xff,0x0f,
 0x00,0x00,0x00,0x00,0x03,0x00,0x80,0xff,0x81,0x01,0x00,0xa0,0x7f,0xc0,0x00,
 0x00,0xe0,0x7f,0x60,0x00,0x00,0xe0,0x3f,0x00,0x00,0x00,0x80,0x01,0x40,0x09,
 0xfc,0xc3,0x00,0xa0,0x04,0xfe,0x61,0x00,0xa8,0x00,0xfd,0x30,0x00,0x54,0x00,
 0x7f,0x00,0x00,0x00,0x60,0x00,0xff,0x7f,0xe0,0x37,0x80,0xff,0xbf,0xf0,0x1b,
 0xc0,0xff,0x1f,0xfc,0x0f,0xe0,0xff,0x1f,0xf8,0x01,0x00,0x00,0x30,0xc0,0xff,
 0xff,0x83,0x1f,0xf0,0xff,0xff,0xc1,0x0f,0xf8,0xff,0xff,0xe1,0x03,0xf8,0xff,
 0xff,0xe0,0x03,0x00,0x00,0x08,0xf0,0x5f,0xfd,0x1f,0x0f,0xf8,0xaf,0xfa,0x8f,
 0x07,0xfc,0x2b,0xfd,0xc7,0x03,0xfe,0x55,0xff,0xc3,0x07,0x00,0x00,0x0c,0xfc,
 0x01,0x80,0x7f,0x0c,0xbe,0x00,0xc0,0x3f,0x06,0x5f,0x00,0xe0,0x1f,0x83,0x3f,
 0x00,0xe0,0x0f,0x1f,0x00,0x00,0x02,0x7e,0x00,0x00,0x7c,0x08,0x5f,0x00,0x00,
 0x3e,0x84,0x2f,0x00,0x00,0x3f,0xe2,0x0f,0x00,0x00,0x1f,0x1e,0x00,0x00,0x83,
 0x1f,0x00,0x00,0xf0,0xc3,0x07,0x00,0x00,0xf8,0xe1,0x03,0x00,0x00,0x78,0xf4,
 0x01,0x00,0x00,0x7e,0x3c,0x00,0x80,0xc0,0x07,0x00,0x00,0xc0,0xe3,0x03,0x00,
 0x00,0xe0,0xf1,0x01,0x00,0x00,0xf0,0x71,0x01,0x00,0x00,0xf8,0x78,0x00,0xc0,
 0xe0,0x01,0x00,0x00,0x60,0xc0,0x03,0x00,0x00,0x30,0xe0,0x01,0x00,0x00,0x18,
 0xf0,0x00,0x00,0x00,0xe0,0xf1,0x00,0x40,0xf0,0x00,0x00,0x00,0x20,0x98,0x07,
 0x00,0x00,0x10,0xcc,0x03,0x00,0x00,0x08,0xe6,0x01,0x00,0x00,0xc0,0xe3,0x00,
 0x20,0x78,0x00,0x00,0x00,0x10,0x9c,0x0f,0x00,0x00,0x08,0xcc,0x07,0x00,0x00,
 0x04,0xc6,0x03,0x00,0x00,0x80,0xe7,0x01,0x30,0x38,0x00,0x00,0x00,0x18,0x3c,
 0x0f,0x00,0x00,0x0c,0x9e,0x07,0x00,0x00,0x04,0xdf,0x07,0x00,0x00,0x80,0xcf,
 0x03,0x10,0x1c,0x00,0x00,0x00,0x08,0x7e,0x1e,0x00,0x00,0x04,0x3f,0x0f,0x00,
 0x00,0x82,0x9f,0x07,0x00,0x00,0x00,0x8e,0x03,0x08,0x1e,0x00,0x00,0x00,0x04,
 0x6f,0x1c,0x00,0x00,0x82,0x3f,0x0e,0x00,0x00,0xc3,0x3f,0x07,0x00,0x00,0x00,
 0x9e,0x07,0x08,0x0e,0x00,0x00,0x00,0x04,0xf7,0x3c,0x00,0x00,0x82,0x73,0x1e,
 0x00,0x00,0xc1,0x39,0x0f,0x00,0x00,0x00,0x3c,0x07,0x04,0x0f,0x00,0x00,0x00,
 0x82,0xe3,0x3d,0x00,0x00,0xc2,0xf3,0x1e,0x00,0x00,0xe1,0x79,0x0e,0x00,0x00,
 0x00,0x3c,0x0f,0x04,0x07,0x00,0x00,0x00,0x82,0xc3,0x79,0x00,0x00,0xc1,0xe1,
 0x3c,0x00,0x80,0xe0,0x70,0x1e,0x00,0x00,0x00,0x38,0x07,0x84,0x03,0x00,0x00,
 0x00,0xc2,0xc1,0x39,0x00,0x00,0xe1,0xe0,0x1c,0x00,0x80,0x70,0x70,0x1e,0x00,
 0x00,0x00,0x70,0x0e,0x82,0x03,0x00,0x00,0x00,0xc1,0xc1,0x70,0x00,0x80,0xe1,
 0x60,0x38,0x00,0xc0,0x70,0x20,0x1c,0x00,0x00,0x00,0x30,0x1e,0xc2,0x03,0x00,
 0x00,0x00,0xe1,0x81,0xf0,0x00,0x80,0xe0,0x40,0x78,0x00,0x80,0x70,0x60,0x3c,
 0x00,0x00,0x00,0x10,0x1e,0xc2,0x01,0x00,0x00,0x00,0xc1,0x80,0xf1,0x00,0x80,
 0x70,0xc0,0x78,0x00,0x40,0x70,0x20,0x3c,0x00,0x00,0x00,0x30,0x1c,0xc2,0x01,
 0x00,0x00,0x00,0xe1,0x80,0x70,0x00,0x80,0x70,0x40,0x78,0x00,0x40,0x38,0x40,
 0x38,0x00,0x00,0x00,0x20,0x1c,0xc1,0x01,0x00,0x00,0x80,0xe0,0x00,0xe1,0x00,
 0x80,0x70,0x80,0x70,0x00,0x40,0x38,0x40,0x38,0x00,0x00,0x00,0x20,0x1c,0xc3,
 0x01,0x00,0x00,0x80,0xf0,0x00,0xf1,0x00,0x40,0x70,0x80,0x78,0x00,0x60,0x38,
 0x40,0x3c,0x00,0x00,0x00,0x20,0x3c,0xe0,0x00,0x00,0x00,0x80,0x60,0x00,0xe1,
 0x00,0x40,0x70,0x80,0x70,0x00,0x40,0x38,0xc0,0x78,0x00,0x00,0x00,0x20,0x3c,
 0xc3,0x01,0x00,0x00,0x80,0xf0,0x00,0xe3,0x01,0x40,0x38,0x80,0x71,0x00,0x20,
 0x38,0x40,0x38,0x00,0x00,0x00,0x60,0x1c,0xe1,0x00,0x00,0x00,0x80,0x60,0x00,
 0xe1,0x00,0x40,0x70,0x80,0x70,0x00,0x40,0x18,0x40,0x78,0x00,0x00,0x00,0x40,
 0x3c,0xc1,0x01,0x00,0x00,0x80,0xf0,0x00,0xe1,0x00,0x40,0x38,0x80,0xf0,0x00,
 0x20,0x38,0xc0,0x38,0x00,0x00,0x00,0x20,0x1c,0xe1,0x00,0x00,0x00,0x80,0x70,
 0x00,0xe1,0x01,0x80,0x70,0x80,0x70,0x00,0x40,0x38,0x40,0x38,0x00,0x00,0x00,
 0x20,0x3c,0xc1,0x01,0x00,0x00,0x80,0xe0,0x00,0xf1,0x00,0x40,0x70,0x80,0x78,
 0x00,0x60,0x38,0x40,0x78,0x00,0x00,0x00,0x60,0x34,0xc1,0x01,0x00,0x00,0x00,
 0xe1,0x00,0xe1,0x00,0x80,0x70,0xc0,0x70,0x00,0x40,0x38,0x40,0x38,0x00,0x00,
 0x00,0x20,0x1c,0xc2,0x01,0x00,0x00,0x80,0xe0,0x80,0xf1,0x00,0xc0,0x70,0x80,
 0x78,0x00,0x40,0x38,0x40,0x3c,0x00,0x00,0x00,0x20,0x3c,0xc3,0x01,0x00,0x00,
 0x00,0xe1,0x00,0xe1,0x00,0x80,0x70,0xc0,0x78,0x00,0x40,0x78,0x60,0x38,0x00,
 0x00,0x00,0x20,0x1c,0xc2,0x01,0x00,0x00,0x00,0xe1,0x80,0xf0,0x00,0x80,0xf0,
 0x40,0x38,0x00,0x40,0x30,0x20,0x3c,0x00,0x00,0x00,0x30,0x1c,0x82,0x03,0x00,
 0x00,0x00,0xc1,0x81,0x70,0x00,0x80,0xe0,0x40,0x78,0x00,0x40,0x70,0x60,0x1c,
 0x00,0x00,0x00,0x10,0x1e,0x82,0x03,0x00,0x00,0x00,0xc3,0xc1,0x78,0x00,0x00,
 0xe1,0x20,0x38,0x00,0x80,0xf0,0x20,0x1c,0x00,0x00,0x00,0x10,0x0e,0x84,0x07,
 0x00,0x00,0x00,0xc2,0x43,0x78,0x00,0x00,0xc1,0x21,0x3c,0x00,0x80,0xe0,0x30,
 0x1e,0x00,0x00,0x00,0x18,0x0e,0x04,0x07,0x00,0x00,0x00,0x82,0x43,0x38,0x00,
 0x00,0xc3,0x21,0x1c,0x00,0x80,0xe1,0x10,0x1e,0x00,0x00,0x00,0x08,0x0f,0x3c,
 0x07,0x00,0x00,0x00,0xbe,0x63,0x3c,0x00,0x00,0xde,0x13,0x1e,0x00,0x00,0xef,
 0x19,0x0e,0x00,0x00,0x00,0x04,0x07,0x78,0x0e,0x00,0x00,0x00,0x3c,0x37,0x3c,
 0x00,0x00,0x9e,0x1b,0x1e,0x00,0x00,0xcf,0x0d,0x0f,0x00,0x00,0x00,0x04,0x07,
 0x78,0x1e,0x00,0x00,0x00,0x3c,0x1f,0x1c,0x00,0x00,0x1e,0x0f,0x0f,0x00,0x00,
 0x9e,0x07,0x07,0x00,0x00,0x00,0x86,0x03,0xf0,0x3c,0x00,0x00,0x00,0x78,0x0e,
 0x1e,0x00,0x00,0x3c,0x07,0x0f,0x00,0x00,0x9e,0x87,0x07,0x00,0x00,0x00,0xc3,
 0x03,0xf0,0x3c,0x00,0x00,0x00,0x78,0x0e,0x0f,0x00,0x00,0x78,0x86,0x07,0x00,
 0x00,0x3c,0xc3,0x03,0x00,0x00,0x80,0xc1,0x03,0xe0,0x79,0x00,0x00,0x00,0xf0,
 0x0c,0x0f,0x00,0x00,0x78,0xc6,0x03,0x00,0x00,0x3c,0xc2,0x03,0x00,0x00,0xc0,
 0xe0,0x01,0xc0,0xe3,0x01,0x00,0x00,0xe0,0x81,0x07,0x00,0x00,0xf0,0xc0,0x03,
 0x00,0x00,0x78,0xe2,0x01,0x00,0x00,0x20,0xf0,0x00,0xc0,0xe3,0x01,0x00,0x00,
 0xe0,0xc1,0x03,0x00,0x00,0xf0,0xf1,0x01,0x00,0x00,0xf0,0xf0,0x00,0x00,0x00,
 0x30,0x70,0x00,0x80,0xcf,0x07,0x00,0x00,0xc0,0xe6,0x03,0x00,0x00,0xa0,0xe2,
 0x01,0x00,0x00,0xd8,0xf8,0x01,0x00,0x00,0x18,0x7c,0x00,0x00,0x9f,0x1f,0x00,
 0x00,0x30,0xc0,0x0f,0x00,0x00,0x1c,0xe0,0x07,0x00,0x00,0x0e,0xe0,0x03,0x00,
 0x00,0x06,0x3e,0x00,0x00,0x1e,0x7e,0x00,0x00,0x1e,0x18,0x1f,0x00,0x00,0x07,
 0x8c,0x1f,0x00,0x80,0x05,0xc6,0x0f,0x00,0x80,0x03,0x1b,0x00,0x00,0x7e,0xfc,
 0x01,0xc0,0x03,0x3e,0xfe,0x01,0xe0,0x01,0x1f,0xfe,0x00,0x70,0x81,0x1f,0x7f,
 0x00,0xe8,0x80,0x0f,0x00,0x00,0xf8,0xf1,0x7f,0x7d,0x00,0xff,0xf8,0xbf,0x3d,
 0x80,0x7f,0xfc,0xdf,0x1e,0xc0,0x3f,0xfc,0xbf,0x1f,0xe0,0x07,0x00,0x00,0xf0,
 0xc1,0xaf,0x0b,0xc0,0xff,0xe1,0x53,0x03,0xe0,0xff,0xe0,0xb3,0x01,0xf0,0x7f,
 0xf8,0x69,0x00,0xf0,0x01,0x00,0x00,0xe0,0x0f,0x02,0x00,0xf0,0xb6,0x07,0x01,
 0x00,0xf8,0xf3,0x83,0x00,0x00,0xbc,0xf9,0x83,0x00,0x00,0xfc,0x00,0x00,0x00,
 0x80,0x3f,0x00,0x00,0xdc,0xc3,0x1f,0x00,0x00,0xff,0xe0,0x1f,0x00,0x00,0xef,
 0xf0,0x07,0x00,0x80,0x7f,0x00,0x00,0x00,0x00,0xff,0x05,0x40,0xff,0x80,0xff,
 0x01,0xd0,0xbf,0x80,0xff,0x00,0xf0,0x3f,0xc0,0x7f,0x01,0xf4,0x1f,0x00,0x00,
 0x00,0x00,0xfc,0x7f,0xff,0x3f,0x00,0xfc,0xff,0xff,0x2d,0x00,0xff,0xff,0xff,
 0x0f,0x00,0xff,0xff,0xff,0x07,0x00,0x00,0x00,0x00,0xe0,0xff,0xff,0x17,0x00,
 0xe8,0xff,0xff,0x07,0x00,0xf8,0x7f,0xff,0x01,0x00,0xfc,0xff,0xff,0x00,0x00,
 0x00,0x00,0x00,0x00,0xff,0xfb,0x02,0x00,0x40,0xff,0xbd,0x00,0x00,0xc0,0xff,
 0x5f,0x00,0x00,0xe0,0xbf,0x1f,0x00,0x00,0x00,0x00,0x00,0x00,0x50,0x17,0x00,
 0x00,0x00,0xa8,0x06,0x00,0x00,0x00,0xa8,0x01,0x00,0x00,0x00,0x68,0x01,0x00,
 0x00,0x00 };
