#define _width 182
#define _height 64
static char _bits[] = {
 0x00,0x00,0x00,0x20,0x01,0x00,0x00,0x00,0x90,0x04,0x00,0x00,0x00,0x28,0x01,
 0x00,0x00,0x00,0xaa,0x00,0x00,0x00,0x00,0x00,0x00,0x80,0xaf,0xff,0x01,0x00,
 0xc0,0xd7,0xff,0x00,0x00,0xe0,0xcb,0x7f,0x00,0x00,0xf0,0xe2,0x7f,0x00,0x00,
 0x00,0x00,0x00,0x70,0x00,0xff,0x0f,0x00,0x38,0x80,0xff,0x07,0x00,0x1c,0xc0,
 0xff,0x07,0x00,0x0e,0xe0,0xff,0x03,0x00,0x00,0x00,0x00,0x0c,0x00,0xfe,0x7f,
 0x00,0x06,0x00,0xfd,0x3f,0x00,0x03,0x80,0xfe,0x0f,0x80,0x01,0x40,0xff,0x0f,
 0x00,0x00,0x00,0x00,0x03,0x00,0x80,0xfe,0x80,0x01,0x00,0x80,0x7f,0xc0,0x00,
 0x00,0xa0,0x7f,0x60,0x00,0x00,0xa0,0x3b,0x00,0x00,0x00,0x80,0x01,0x40,0x01,
 0xf4,0xc3,0x00,0x50,0x01,0xdc,0x61,0x00,0xa8,0x02,0xfb,0x30,0x00,0x54,0x01,
 0x7f,0x00,0x00,0x00,0x60,0x00,0xfd,0x7f,0xd1,0x37,0x80,0xfe,0x7f,0xf0,0x1b,
 0xc0,0xff,0x3f,0xfc,0x0b,0xe0,0xff,0x1f,0xf8,0x01,0x00,0x00,0x30,0xc0,0xff,
 0xff,0x43,0x1f,0xe0,0xff,0xff,0xe3,0x0f,0xf0,0xff,0xff,0xe0,0x07,0xf8,0xff,
 0xff,0xe0,0x03,0x00,0x00,0x08,0xf0,0x5f,0xf5,0x1f,0x0f,0xf8,0x2f,0xfd,0x8f,
 0x07,0xfc,0x4a,0xfa,0x47,0x03,0xfe,0x4a,0xfe,0xc3,0x07,0x00,0x00,0x0c,0xfc,
 0x01,0x80,0x3e,0x0c,0xfe,0x00,0x80,0x1f,0x06,0xbf,0x00,0xc0,0x9f,0x83,0x1f,
 0x00,0xe0,0x0f,0x0f,0x00,0x00,0x02,0x3e,0x00,0x00,0xfc,0x08,0x1f,0x00,0x00,
 0x7a,0x84,0x0f,0x00,0x00,0x3f,0xc2,0x07,0x00,0x00,0x1f,0x1e,0x00,0x00,0x83,
 0x0f,0x00,0x00,0xf0,0xc3,0x07,0x00,0x00,0xf8,0xe0,0x03,0x00,0x00,0x78,0xf0,
 0x01,0x00,0x00,0x7c,0x3c,0x00,0x80,0xc0,0x07,0x00,0x00,0xc0,0xe5,0x03,0x00,
 0x00,0xe0,0xf1,0x01,0x00,0x00,0xf0,0xf8,0x00,0x00,0x00,0x78,0x78,0x00,0xc0,
 0x60,0x01,0x00,0x00,0x20,0xc0,0x02,0x00,0x00,0x30,0x60,0x01,0x00,0x00,0x08,
 0xf0,0x00,0x00,0x00,0xe0,0xf1,0x00,0x40,0xf0,0x01,0x00,0x00,0x20,0x88,0x07,
 0x00,0x00,0x10,0xcc,0x03,0x00,0x00,0x08,0xe6,0x01,0x00,0x00,0xe0,0xe3,0x00,
 0x20,0x70,0x00,0x00,0x00,0x10,0x38,0x0f,0x00,0x00,0x08,0xcc,0x07,0x00,0x00,
 0x04,0xc7,0x03,0x00,0x00,0x80,0xe7,0x01,0x30,0x38,0x00,0x00,0x00,0x18,0x3c,
 0x0f,0x00,0x00,0x0c,0x9e,0x07,0x00,0x00,0x06,0x9f,0x07,0x00,0x00,0x00,0xc7,
 0x03,0x10,0x3c,0x00,0x00,0x00,0x08,0x7e,0x1e,0x00,0x00,0x04,0x3f,0x0f,0x00,
 0x00,0x82,0x9f,0x07,0x00,0x00,0x00,0x8f,0x03,0x08,0x1e,0x00,0x00,0x00,0x04,
 0xff,0x1c,0x00,0x00,0x82,0x3f,0x0e,0x00,0x00,0xc1,0x3d,0x07,0x00,0x00,0x00,
 0x9e,0x03,0x08,0x0e,0x00,0x00,0x00,0x04,0xe7,0x3c,0x00,0x00,0x82,0x73,0x1e,
 0x00,0x00,0xc1,0x39,0x0f,0x00,0x00,0x00,0x3c,0x07,0x04,0x07,0x00,0x00,0x00,
 0x82,0xe3,0x39,0x00,0x00,0xc2,0xf1,0x1e,0x00,0x00,0xe1,0x79,0x0e,0x00,0x00,
 0x00,0x38,0x0f,0x04,0x07,0x00,0x00,0x00,0x82,0xc3,0x79,0x00,0x00,0xc1,0xe1,
 0x34,0x00,0x80,0xe0,0x70,0x1e,0x00,0x00,0x00,0x38,0x0f,0x84,0x03,0x00,0x00,
 0x00,0xc2,0xc1,0x79,0x00,0x00,0xe1,0xe0,0x3c,0x00,0x80,0x70,0x70,0x1e,0x00,
 0x00,0x00,0x78,0x0e,0x82,0x03,0x00,0x00,0x00,0xc1,0x81,0x71,0x00,0x80,0xe0,
 0x60,0x38,0x00,0xc0,0x70,0x20,0x1c,0x00,0x00,0x00,0x10,0x0e,0x82,0x03,0x00,
 0x00,0x00,0xc1,0x81,0x70,0x00,0x80,0xe0,0x40,0x38,0x00,0x80,0x70,0x20,0x3c,
 0x00,0x00,0x00,0x10,0x1e,0xc2,0x01,0x00,0x00,0x00,0xe1,0x80,0xf0,0x00,0x80,
 0x70,0x40,0x78,0x00,0x40,0x38,0x60,0x1c,0x00,0x00,0x00,0x30,0x1c,0xc2,0x01,
 0x00,0x00,0x00,0xe1,0x80,0xe1,0x00,0x80,0x70,0xc0,0x78,0x00,0x40,0x70,0x40,
 0x38,0x00,0x00,0x00,0x20,0x0e,0xc2,0x01,0x00,0x00,0x80,0xe1,0x00,0xf1,0x00,
 0x80,0x70,0x80,0x70,0x00,0x40,0x38,0x40,0x38,0x00,0x00,0x00,0x20,0x1c,0xc2,
 0x01,0x00,0x00,0x00,0xe1,0x00,0xe1,0x00,0x40,0x70,0x80,0x70,0x00,0x60,0x38,
 0x40,0x38,0x00,0x00,0x00,0x20,0x1c,0xc0,0x00,0x00,0x00,0x80,0x60,0x00,0xe1,
 0x00,0xc0,0x30,0x80,0x70,0x00,0x40,0x38,0x40,0x78,0x00,0x00,0x00,0x20,0x1c,
 0xe1,0x01,0x00,0x00,0x80,0xf0,0x00,0xe1,0x00,0x00,0x70,0x80,0x78,0x00,0x20,
 0x18,0xc0,0x38,0x00,0x00,0x00,0x60,0x1c,0xc2,0x00,0x00,0x00,0x80,0x60,0x00,
 0xe3,0x00,0xc0,0x78,0x80,0x70,0x00,0x40,0x38,0x40,0x78,0x00,0x00,0x00,0x40,
 0x1c,0xe0,0x01,0x00,0x00,0x80,0xf0,0x00,0xe1,0x01,0x40,0x30,0x80,0x71,0x00,
 0x20,0x38,0x40,0x38,0x00,0x00,0x00,0x20,0x14,0xc1,0x00,0x00,0x00,0x80,0x60,
 0x00,0xe1,0x00,0x80,0x70,0x80,0x70,0x00,0x60,0x38,0x40,0x78,0x00,0x00,0x00,
 0x20,0x1c,0xc2,0x01,0x00,0x00,0x80,0xe0,0x00,0xe1,0x00,0x40,0x70,0x80,0x70,
 0x00,0x40,0x38,0x40,0x38,0x00,0x00,0x00,0x60,0x1c,0xc2,0x01,0x00,0x00,0x80,
 0xf0,0x00,0xf1,0x00,0x80,0x70,0x80,0x78,0x00,0x40,0x38,0x40,0x3c,0x00,0x00,
 0x00,0x20,0x1c,0xc2,0x01,0x00,0x00,0x00,0xe1,0x00,0xe1,0x00,0x80,0x70,0xc0,
 0x70,0x00,0x40,0x38,0x40,0x38,0x00,0x00,0x00,0x20,0x14,0xc2,0x01,0x00,0x00,
 0x00,0x61,0x80,0xf1,0x00,0x80,0x70,0x80,0x78,0x00,0x40,0x30,0x60,0x3c,0x00,
 0x00,0x00,0x20,0x1c,0xc2,0x01,0x00,0x00,0x00,0xc1,0x81,0xb0,0x00,0x80,0xe0,
 0x40,0x38,0x00,0x40,0x78,0x40,0x2c,0x00,0x00,0x00,0x30,0x1c,0x82,0x03,0x00,
 0x00,0x00,0xe1,0x81,0xf0,0x00,0x80,0xe0,0x40,0x38,0x00,0x40,0x70,0x20,0x3c,
 0x00,0x00,0x00,0x10,0x1e,0x84,0x03,0x00,0x00,0x00,0xc3,0x81,0x70,0x00,0x80,
 0xe1,0x60,0x38,0x00,0x80,0x70,0x20,0x1c,0x00,0x00,0x00,0x10,0x0e,0x04,0x07,
 0x00,0x00,0x00,0xc2,0xc1,0x78,0x00,0x00,0xe1,0x21,0x3c,0x00,0x80,0xe0,0x30,
 0x1e,0x00,0x00,0x00,0x18,0x0e,0x84,0x07,0x00,0x00,0x00,0x82,0x43,0x38,0x00,
 0x00,0xc1,0x21,0x1c,0x00,0x80,0xe1,0x10,0x0e,0x00,0x00,0x00,0x08,0x07,0x3c,
 0x0d,0x00,0x00,0x00,0x9e,0x27,0x3c,0x00,0x00,0x9e,0x13,0x1e,0x00,0x00,0xcf,
 0x19,0x0f,0x00,0x00,0x00,0x0c,0x0d,0x78,0x0e,0x00,0x00,0x00,0x3c,0x27,0x2c,
 0x00,0x00,0x9e,0x13,0x0e,0x00,0x00,0xcf,0x0d,0x0d,0x00,0x00,0x00,0x04,0x07,
 0x78,0x1e,0x00,0x00,0x00,0x3c,0x1f,0x1e,0x00,0x00,0x9e,0x0f,0x1b,0x00,0x00,
 0xce,0x07,0x07,0x00,0x00,0x00,0x86,0x07,0xf0,0x1c,0x00,0x00,0x00,0x78,0x0e,
 0x1e,0x00,0x00,0x3c,0x06,0x0f,0x00,0x00,0x9e,0x83,0x07,0x00,0x00,0x00,0x83,
 0x03,0xe0,0x78,0x00,0x00,0x00,0x58,0x0c,0x0b,0x00,0x00,0x38,0x87,0x07,0x00,
 0x00,0x3c,0xc3,0x03,0x00,0x00,0x80,0xc1,0x01,0xe0,0x79,0x00,0x00,0x00,0xf0,
 0x8c,0x0f,0x00,0x00,0x78,0xc4,0x05,0x00,0x00,0x3c,0xc2,0x03,0x00,0x00,0xc0,
 0xe0,0x01,0xc0,0xe3,0x00,0x00,0x00,0xe0,0x89,0x07,0x00,0x00,0xf0,0xc4,0x03,
 0x00,0x00,0x78,0xe2,0x01,0x00,0x00,0x60,0xf0,0x00,0xc0,0xe3,0x03,0x00,0x00,
 0xe0,0xc3,0x05,0x00,0x00,0xe0,0xe1,0x01,0x00,0x00,0xf0,0xf0,0x00,0x00,0x00,
 0x30,0x70,0x00,0x80,0xcf,0x07,0x00,0x00,0xc0,0xe2,0x03,0x00,0x00,0x70,0xf1,
 0x01,0x00,0x00,0x58,0xf9,0x00,0x00,0x00,0x1c,0x78,0x00,0x00,0x0f,0x1f,0x00,
 0x00,0x30,0x80,0x07,0x00,0x00,0x18,0xc0,0x07,0x00,0x00,0x0e,0xe0,0x03,0x00,
 0x00,0x06,0x3c,0x00,0x00,0x3e,0x3e,0x00,0x00,0x1c,0x98,0x3f,0x00,0x00,0x0e,
 0x8c,0x1f,0x00,0x80,0x03,0xc6,0x0f,0x00,0x80,0x03,0x1f,0x00,0x00,0x7c,0xec,
 0x01,0x80,0x07,0x3c,0xfc,0x00,0xc0,0x03,0x1e,0x7d,0x00,0xf0,0x80,0x1f,0x7f,
 0x00,0xf0,0x80,0x0f,0x00,0x00,0xf8,0xf0,0xbf,0xfa,0x00,0x7f,0xf8,0x5f,0x7d,
 0x80,0x7f,0xfc,0xdf,0x1f,0xc0,0x1f,0xfe,0x6f,0x1f,0xc0,0x03,0x00,0x00,0xf0,
 0xc3,0xef,0x17,0x80,0xff,0xe1,0xf7,0x03,0xc0,0xff,0xe0,0xb3,0x00,0xf0,0xfe,
 0xf0,0xd9,0x00,0xf0,0x03,0x00,0x00,0xa0,0x0f,0x06,0x00,0xe0,0xf7,0x07,0x01,
 0x00,0xf0,0xfb,0x83,0x00,0x00,0xdc,0xf5,0x81,0x00,0x00,0xfc,0x00,0x00,0x00,
 0xc0,0x3f,0x00,0x00,0xfc,0xc3,0x1f,0x00,0x00,0xfe,0xe1,0x1f,0x00,0x00,0xf7,
 0xf0,0x0f,0x00,0x80,0x3f,0x00,0x00,0x00,0x00,0xfe,0x01,0x80,0xff,0x00,0xff,
 0x02,0xe0,0x7f,0x80,0x7f,0x01,0xf0,0x3f,0xc0,0x7f,0x00,0xf8,0x1f,0x00,0x00,
 0x00,0x00,0xfc,0xbf,0xfa,0x3b,0x00,0xfa,0x5f,0xfd,0x1f,0x00,0xee,0xff,0xff,
 0x0f,0x00,0xfb,0xbf,0x7f,0x0b,0x00,0x00,0x00,0x00,0xe0,0xff,0xff,0x0e,0x00,
 0xf8,0xff,0xbf,0x03,0x00,0xf8,0xbf,0xbf,0x01,0x00,0xfc,0xff,0xef,0x01,0x00,
 0x00,0x00,0x00,0x00,0xef,0xb7,0x03,0x00,0x80,0xf6,0xef,0x00,0x00,0xc0,0xf7,
 0x6d,0x00,0x00,0xa0,0xf7,0x3f,0x00,0x00,0x00,0x00,0x00,0x00,0x10,0x44,0x00,
 0x00,0x00,0x08,0x10,0x00,0x00,0x00,0x48,0x02,0x00,0x00,0x00,0x08,0x00,0x00,
 0x00,0x00 };
