#define _width 182
#define _height 64
static char _bits[] = {
 0x00,0x00,0x00,0xe8,0x15,0x00,0x00,0x00,0xf4,0x06,0x00,0x00,0x00,0x7d,0x05,
 0x00,0x00,0x00,0x7d,0x05,0x00,0x00,0x00,0x00,0x00,0xc0,0xff,0xff,0x01,0x00,
 0xc0,0xff,0xff,0x00,0x00,0xf0,0xdf,0x7f,0x00,0x00,0xf8,0xff,0x3f,0x00,0x00,
 0x00,0x00,0x00,0xf0,0xff,0xff,0x0f,0x00,0xf8,0xff,0xff,0x07,0x00,0xfe,0xff,
 0xff,0x03,0x00,0xff,0xff,0xff,0x01,0x00,0x00,0x00,0x00,0xfc,0xad,0xfa,0x7f,
 0x00,0xfe,0x57,0xfd,0x3f,0x80,0xbf,0xd5,0xff,0x0f,0xc0,0xff,0x4a,0xff,0x07,
 0x00,0x00,0x00,0x00,0x0f,0x00,0x80,0xff,0x80,0x0f,0x00,0xc0,0x7f,0xe0,0x00,
 0x00,0xe0,0x3f,0x70,0x01,0x00,0xf0,0x1f,0x00,0x00,0x00,0xc0,0x01,0xa0,0x0a,
 0xfc,0xe3,0x00,0x50,0x05,0xfe,0x31,0x00,0xa8,0x00,0x7f,0x18,0x00,0x5a,0x81,
 0x7f,0x00,0x00,0x00,0x60,0x00,0xff,0x7f,0xe0,0x37,0x80,0xff,0x3f,0xf0,0x0f,
 0xc0,0xff,0x1f,0xfc,0x07,0xa0,0xff,0x0f,0xfe,0x00,0x00,0x00,0x18,0xc0,0xff,
 0xff,0xc3,0x1f,0xe0,0xff,0xff,0xe3,0x07,0xf8,0xff,0xff,0xf0,0x03,0xfc,0xff,
 0x7f,0xf8,0x01,0x00,0x00,0x0c,0xf0,0x5f,0xfd,0x1f,0x0f,0xf8,0xaf,0xfa,0x8f,
 0x03,0xfe,0x57,0xff,0xc3,0x01,0xff,0xab,0xff,0xe1,0x03,0x00,0x00,0x06,0xfc,
 0x01,0x80,0x3f,0x04,0xfe,0x00,0xc0,0x1f,0x82,0x3f,0x00,0xe0,0x8f,0xc1,0x1f,
 0x00,0xf0,0xc7,0x0f,0x00,0x00,0x01,0x3f,0x00,0x00,0xfc,0x0c,0x3f,0x00,0x00,
 0x7e,0xc2,0x0f,0x00,0x80,0x1f,0xe1,0x03,0x00,0xc0,0x0f,0x0f,0x00,0x00,0x81,
 0x0f,0x00,0x00,0xf8,0xc1,0x0f,0x00,0x00,0xf8,0xf0,0x03,0x00,0x00,0x7e,0xf0,
 0x01,0x00,0x00,0x3e,0x1f,0x00,0x80,0xc1,0x07,0x00,0x00,0x60,0xe1,0x03,0x00,
 0x00,0x30,0xf0,0x01,0x00,0x00,0x58,0x78,0x00,0x00,0x00,0x7c,0x3c,0x00,0xc0,
 0xe0,0x01,0x00,0x00,0x20,0xc0,0x03,0x00,0x00,0x10,0xe0,0x01,0x00,0x00,0x08,
 0xf8,0x00,0x00,0x00,0xf8,0x7c,0x00,0x60,0xf0,0x00,0x00,0x00,0x20,0x88,0x07,
 0x00,0x00,0x08,0xe6,0x03,0x00,0x00,0x0c,0xf2,0x00,0x00,0x00,0xe0,0x79,0x00,
 0x20,0x78,0x00,0x00,0x00,0x10,0x9c,0x07,0x00,0x00,0x0c,0xce,0x03,0x00,0x00,
 0x06,0xe7,0x01,0x00,0x00,0xc0,0xf1,0x00,0x30,0x38,0x00,0x00,0x00,0x18,0x1e,
 0x0f,0x00,0x00,0x04,0x9f,0x07,0x00,0x00,0x82,0xe7,0x03,0x00,0x00,0xc0,0xe3,
 0x01,0x18,0x3c,0x00,0x00,0x00,0x08,0x3e,0x0f,0x00,0x00,0x86,0x1f,0x07,0x00,
 0x00,0x83,0xcf,0x03,0x00,0x00,0x80,0xe7,0x01,0x08,0x1e,0x00,0x00,0x00,0x0c,
 0x7f,0x1e,0x00,0x00,0x82,0x3f,0x0f,0x00,0x00,0xc1,0x8f,0x03,0x00,0x00,0x00,
 0xcf,0x03,0x08,0x0e,0x00,0x00,0x00,0x04,0xf7,0x1c,0x00,0x00,0xc3,0x7b,0x1e,
 0x00,0x80,0xe1,0x9d,0x07,0x00,0x00,0x00,0xce,0x03,0x0c,0x07,0x00,0x00,0x00,
 0x86,0xe3,0x3c,0x00,0x00,0xc1,0x71,0x1e,0x00,0x80,0xe0,0x3c,0x0f,0x00,0x00,
 0x00,0x9e,0x07,0x04,0x07,0x00,0x00,0x00,0x82,0xe3,0x3c,0x00,0x80,0xe1,0xf1,
 0x1c,0x00,0x80,0xf0,0x38,0x0f,0x00,0x00,0x00,0x9c,0x07,0x86,0x07,0x00,0x00,
 0x00,0xc2,0xc3,0x79,0x00,0x80,0xe0,0xe0,0x3c,0x00,0x40,0x70,0x78,0x0f,0x00,
 0x00,0x00,0x3c,0x07,0x82,0x03,0x00,0x00,0x00,0xc3,0xc1,0x79,0x00,0x80,0xf4,
 0xe0,0x3c,0x00,0x40,0x72,0x70,0x0e,0x00,0x00,0x00,0x38,0x0f,0xd2,0x03,0x00,
 0x00,0x00,0xe9,0xc1,0x73,0x00,0x80,0x72,0xc0,0x39,0x00,0x40,0x39,0x70,0x1e,
 0x00,0x00,0x00,0x38,0x0f,0xca,0x01,0x00,0x00,0x00,0xc5,0x80,0x73,0x00,0xc0,
 0x72,0xc0,0x39,0x00,0x60,0x39,0x70,0x1e,0x00,0x00,0x00,0x70,0x0e,0xca,0x01,
 0x00,0x00,0x00,0xe5,0x80,0x73,0x00,0x40,0x72,0xc0,0x79,0x00,0x20,0x39,0xe0,
 0x1c,0x00,0x00,0x00,0x78,0x1e,0xcf,0x01,0x00,0x00,0x80,0xe5,0x80,0xf3,0x00,
 0x40,0x3b,0xc0,0x79,0x00,0xa0,0x1d,0xe0,0x1c,0x00,0x00,0x00,0x70,0x1e,0xcd,
 0x01,0x00,0x00,0x80,0xe6,0x80,0xf3,0x00,0xc0,0x39,0x80,0x7b,0x00,0xe0,0x3c,
 0xe0,0x1c,0x00,0x00,0x00,0x70,0x1e,0xe7,0x00,0x00,0x00,0x80,0xf7,0x00,0xf7,
 0x00,0xc0,0x39,0xc0,0x71,0x00,0xa0,0x19,0xe0,0x3c,0x00,0x00,0x00,0x70,0x1e,
 0xcf,0x01,0x00,0x00,0x80,0x63,0x80,0xe3,0x00,0xc0,0x39,0x80,0x7b,0x00,0xe0,
 0x1c,0xe0,0x1c,0x00,0x00,0x00,0x70,0x1e,0xe7,0x00,0x00,0x00,0x80,0xf7,0x00,
 0xf7,0x00,0xc0,0x39,0x80,0x73,0x00,0xe0,0x1c,0xe0,0x3c,0x00,0x00,0x00,0x60,
 0x1e,0xcf,0x01,0x00,0x00,0x00,0x63,0x00,0xe7,0x00,0xe0,0x39,0xc0,0x73,0x00,
 0xe0,0x1d,0xe0,0x1c,0x00,0x00,0x00,0x70,0x1e,0xe7,0x00,0x00,0x00,0x80,0xf7,
 0x80,0xf3,0x00,0xc0,0x39,0x80,0x79,0x00,0xe0,0x1c,0xe0,0x3c,0x00,0x00,0x00,
 0x70,0x1e,0xcf,0x01,0x00,0x00,0x80,0xe7,0x00,0xf7,0x00,0xc0,0x39,0xc0,0x73,
 0x00,0xe0,0x1d,0xe0,0x1c,0x00,0x00,0x00,0x70,0x1e,0xce,0x01,0x00,0x00,0x80,
 0xe7,0x80,0x73,0x00,0xc0,0x3b,0x80,0x79,0x00,0xe0,0x38,0xe0,0x3c,0x00,0x00,
 0x00,0x70,0x1e,0xcf,0x01,0x00,0x00,0x00,0xe7,0x80,0xf3,0x00,0xc0,0x71,0xc0,
 0x79,0x00,0xe0,0x1d,0xe0,0x1c,0x00,0x00,0x00,0x50,0x0e,0xce,0x01,0x00,0x00,
 0x00,0xe7,0x80,0x72,0x00,0xc0,0x7b,0x40,0x39,0x00,0xe0,0x39,0xb0,0x1e,0x00,
 0x00,0x00,0x70,0x1f,0xce,0x01,0x00,0x00,0x00,0xe7,0x80,0x73,0x00,0xc0,0x73,
 0xc0,0x39,0x00,0xe0,0x39,0x60,0x1c,0x00,0x00,0x00,0x58,0x0e,0x9e,0x03,0x00,
 0x00,0x00,0xcf,0x41,0x79,0x00,0x80,0x73,0x60,0x3d,0x00,0xc0,0x39,0x50,0x1e,
 0x00,0x00,0x00,0x28,0x0f,0x9e,0x03,0x00,0x00,0x00,0xcf,0x41,0x79,0x00,0x80,
 0xe7,0xa0,0x3c,0x00,0xc0,0x73,0x58,0x0e,0x00,0x00,0x00,0x28,0x0f,0x9c,0x03,
 0x00,0x00,0x00,0xce,0x41,0x39,0x00,0x80,0xe7,0xa0,0x3c,0x00,0xc0,0x73,0x48,
 0x0f,0x00,0x00,0x00,0x8c,0x07,0x3c,0x07,0x00,0x00,0x00,0x9e,0x63,0x3c,0x00,
 0x80,0xe7,0x30,0x1e,0x00,0x80,0xf3,0x28,0x0f,0x00,0x00,0x00,0xa4,0x07,0x3c,
 0x07,0x00,0x00,0x00,0x9e,0x27,0x3c,0x00,0x00,0xcf,0x11,0x1e,0x00,0x80,0xe7,
 0x0c,0x07,0x00,0x00,0x00,0x86,0x03,0x38,0x0f,0x00,0x00,0x00,0x3c,0x37,0x1c,
 0x00,0x00,0xcf,0x1b,0x0e,0x00,0x80,0xe7,0x85,0x07,0x00,0x00,0x00,0xc2,0x03,
 0x78,0x1e,0x00,0x00,0x00,0x3c,0x1f,0x1e,0x00,0x00,0x8e,0x0f,0x0f,0x00,0x00,
 0xcf,0x83,0x07,0x00,0x00,0x00,0xc3,0x03,0xf8,0x1c,0x00,0x00,0x00,0x78,0x0e,
 0x0e,0x00,0x00,0x9e,0x07,0x0f,0x00,0x00,0xcf,0xc3,0x03,0x00,0x00,0x80,0xe1,
 0x01,0xf0,0x3c,0x00,0x00,0x00,0x78,0x0e,0x0f,0x00,0x00,0x3c,0x83,0x07,0x00,
 0x00,0x9e,0xc1,0x01,0x00,0x00,0x80,0xe0,0x00,0xe0,0x79,0x00,0x00,0x00,0xf0,
 0x84,0x07,0x00,0x00,0x7c,0xc6,0x03,0x00,0x00,0x1e,0xe1,0x01,0x00,0x00,0x60,
 0xf0,0x00,0xe0,0xf1,0x00,0x00,0x00,0xf0,0x81,0x07,0x00,0x00,0x78,0xc0,0x03,
 0x00,0x00,0x3c,0xf0,0x00,0x00,0x00,0x20,0x78,0x00,0xc0,0xe7,0x03,0x00,0x00,
 0xe0,0xe1,0x03,0x00,0x00,0xf0,0xe0,0x01,0x00,0x00,0x78,0xf8,0x00,0x00,0x00,
 0x18,0x7c,0x00,0x80,0xc7,0x07,0x00,0x00,0x60,0xe1,0x03,0x00,0x00,0xf0,0xf0,
 0x01,0x00,0x00,0x58,0x78,0x00,0x00,0x00,0x0c,0x3e,0x00,0x00,0x8f,0x0f,0x00,
 0x00,0x18,0x80,0x07,0x00,0x00,0x18,0xf0,0x03,0x00,0x00,0x06,0xf0,0x01,0x00,
 0x00,0x07,0x1f,0x00,0x00,0x3f,0x3f,0x00,0x00,0x0e,0x8c,0x3f,0x00,0x00,0x06,
 0xc6,0x0f,0x00,0x80,0x03,0xe3,0x07,0x00,0xc0,0x81,0x0f,0x00,0x00,0x3e,0xfc,
 0x01,0x80,0x03,0x3e,0xfe,0x00,0xc0,0x03,0x8e,0x3f,0x00,0xf0,0x80,0x8f,0x3f,
 0x00,0x78,0xc0,0x07,0x00,0x00,0xf8,0xf0,0x5f,0xfd,0x00,0x7f,0xf8,0x5f,0x3d,
 0x80,0x3f,0xfe,0x57,0x0f,0xe0,0x1f,0xff,0xab,0x17,0xe0,0x03,0x00,0x00,0xf8,
 0xe3,0xff,0x2f,0xc1,0xff,0xe0,0xff,0xef,0xe2,0x7f,0xf8,0xff,0xbb,0xf0,0x3f,
 0xfc,0xff,0x25,0xf8,0x01,0x00,0x00,0xe0,0x07,0xff,0xff,0xf0,0xf7,0x07,0xff,
 0x3f,0xf0,0xff,0xc1,0xff,0x2f,0xfc,0xfd,0xe0,0xff,0x1f,0xfe,0x00,0x00,0x00,
 0xc0,0x3f,0xa0,0x02,0xfc,0xe1,0x1f,0x50,0x01,0xfe,0xf1,0x07,0x54,0x00,0x7f,
 0xf8,0x03,0x54,0x80,0x3f,0x00,0x00,0x00,0x00,0xff,0x00,0x80,0xff,0x80,0xff,
 0x00,0xc0,0x7f,0xe0,0x3f,0x00,0xd0,0x1f,0xf0,0x1f,0x00,0xf0,0x1f,0x00,0x00,
 0x00,0x00,0xfc,0xbf,0xfe,0x3f,0x00,0xfe,0x5f,0xff,0x1f,0x80,0xff,0xd7,0xff,
 0x0f,0x80,0xff,0xb7,0xff,0x07,0x00,0x00,0x00,0x00,0xf0,0xff,0xff,0x0f,0x00,
 0xf8,0xff,0xff,0x07,0x00,0xfc,0xff,0xff,0x03,0x00,0xff,0xff,0xff,0x01,0x00,
 0x00,0x00,0x00,0x80,0xff,0xff,0x01,0x00,0xc0,0xff,0xff,0x00,0x00,0xf0,0xff,
 0x7f,0x00,0x00,0xf8,0xff,0x3f,0x00,0x00,0x00,0x00,0x00,0x00,0xe8,0x2b,0x00,
 0x00,0x00,0xf4,0x15,0x00,0x00,0x00,0x7e,0x05,0x00,0x00,0x00,0xdd,0x02,0x00,
 0x00,0x00 };
