#define _width 16
#define _height 16
static char _bits[] = {
 0x00,0x00,0x00,0x00,0x80,0x01,0x80,0x03,0xb0,0x06,0xb0,0x0d,0xc0,0x07,0xcc,
 0x31,0x88,0x13,0xe0,0x03,0xb0,0x06,0x90,0x05,0x90,0x03,0x00,0x01,0x80,0x00,
 0x00,0x00 };
