#define _width 16
#define _height 16
static char _bits[] = {
 0x00,0x00,0x00,0x00,0x80,0x01,0x88,0x03,0x38,0x07,0x20,0x0d,0x60,0x02,0x80,
 0x01,0xc0,0x01,0xc0,0x07,0x60,0x05,0xb0,0x1f,0x10,0x13,0x80,0x01,0x00,0x00,
 0x00,0x00 };
