#define _width 16
#define _height 16
static char _bits[] = {
 0x00,0x00,0x80,0x01,0x80,0x07,0x80,0x01,0x80,0x07,0x80,0x01,0x80,0x07,0x80,
 0x01,0x80,0x01,0x80,0x01,0xd1,0x8b,0xca,0x53,0x84,0x21,0x20,0x04,0x52,0x4a,
 0x8c,0x31 };
