#define _width 16
#define _height 16
static char _bits[] = {
 0x00,0x00,0x00,0x00,0x00,0x00,0xe0,0x03,0x80,0x00,0x80,0x00,0xf0,0x4f,0x12,
 0x48,0x12,0x78,0x1e,0x78,0x12,0x48,0x72,0x48,0xc0,0x0f,0x00,0x00,0x00,0x00,
 0x00,0x00 };
