#define _width 16
#define _height 16
static char _bits[] = {
 0x00,0x00,0x60,0x00,0xe0,0x01,0x60,0x00,0xe0,0x01,0x60,0x00,0xe0,0x01,0x60,
 0x00,0x64,0x38,0x62,0x6c,0xf5,0x4e,0xf4,0x0c,0x64,0x44,0x04,0xe2,0xf8,0xe1,
 0x40,0x00 };
